<svg width="304.915625" height="304.915625" viewBox="0 0 312.5 312.5" class="css-1j8o68f">
	<defs id="SvgjsDefs1215">
	</defs>
	<g id="SvgjsG1217" featurekey="nameFeature-0" transform="matrix(2.917152962688965,0,0,2.917152962688965,51.33255484239558,86.29871795899)" fill="#0d7377">
		<path d="M15.92 2.6400000000000006 l1.52 0 l-3.24 37.36 l-2.2 0 l-2.48 -28.6 l-2.48 28.6 l-2.2 0 l-3.24 -37.36 l1.52 0 l2.84 32.6 l2.8 -32.6 l0.04 0 l1.48 0 l2.8 32.6 z M25.6 22.08 l-3.84 0 l0 16.4 l3.84 0 l0 1.52 l-5.32 0 l0 -37.36 l5.32 0 l0 1.52 l-3.84 0 l0 16.4 l3.84 0 l0 1.52 z M37.28 24.72 l0 11.12 c0 2.44 -0.96 4.16 -4.04 4.16 l-4.6 0 l0 -37.36 l4.6 0 c3 0 4.04 1.72 4.04 4.16 l0 6.04 c0 3.4 -1 4.92 -2.96 7.72 c0 0 0 0.04 -0.04 0.04 c2.24 0.36 3 1.96 3 4.12 z M30.119999999999997 4.159999999999997 l0 19.88 c0.64 -1.04 1.52 -2.2 2.56 -3.72 c2 -2.84 3.12 -4.56 3.12 -7.04 l0 -5.84 c0 -1.76 -0.44 -3.28 -2.84 -3.28 l-2.84 0 z M35.8 35.2 l0 -9.88 c0 -1.68 -0.4 -3.12 -2.52 -3.28 c-1.48 2.16 -3.16 4.32 -3.16 6.88 l0 9.56 l2.84 0 c2.44 0 2.84 -1.52 2.84 -3.28 z M41.99999999999999 38.48 l0 -35.84 l-1.52 0 l0 37.36 l5.36 0 l0 -1.52 l-3.84 0 z M50.31999999999999 40 l-1.48 0 l0 -37.36 l1.48 0 l0 37.36 z M58.839999999999996 2.6400000000000006 l0 1.52 l-3.8 34.32 l3.8 0 l0 1.52 l-5.32 0 l0 -1.52 l3.84 -34.32 l-3.84 0 l0 -1.52 l5.32 0 z M62.999999999999986 40 l-1.52 0 l3.04 -37.36 l2.6 0 l3.04 37.36 l-1.52 0 l-0.84 -10.4 c-0.36 0.52 -0.88 1.2 -1.52 2.16 c-1.52 2.2 -2.92 3.8 -3.16 7 z M63.55999999999999 33.12 c0.52 -0.84 1.2 -1.8 2 -2.92 c2 -2.88 1.84 -2.68 1.84 -5.16 c0 -0.28 -1.4 -17.6 -1.52 -19.4 l-0.08 0 z">
		</path>
	</g>
</svg>