<svg width="308.72704686639065" height="304.915625" viewBox="0 0 312.5 308.64199874829063" class="css-1j8o68f"><defs id="SvgjsDefs2326"></defs><g id="SvgjsG2327" featurekey="rootContainer" transform="matrix(2.962557282918362,0,0,2.962557282918362,-0.11114361282025892,0.08493720129761974)" fill="#3d84a8"><path xmlns="http://www.w3.org/2000/svg" d="M104.6 41.3a52.2 52.2 0 0 0-3.5-11.2A51.1 51.1 0 0 0 44.3 1a49.6 49.6 0 0 0-5.7 1.5 49.1 49.1 0 0 0-7.9 2.7A51.6 51.6 0 0 0 6.3 77a53.7 53.7 0 0 0 4.1 6.4 57 57 0 0 0 5 5.7 51.7 51.7 0 0 0 55.3 11.5l3.3-1.4 3-1.5a50.9 50.9 0 0 0 5.8-3.8l2.7-2.1 1.2-1.1 1.1-.9 2-1.8.7-.6.6-.7 1.8-2a48.5 48.5 0 0 0 5.9-8.3 50.4 50.4 0 0 0 5.6-14.7 51.6 51.6 0 0 0 .2-20.4zM87.1 88.6l-1.2 1.1-1.2 1.1-2.6 2.1a49.5 49.5 0 0 1-5.7 3.6l-3 1.5-3.2 1.3-4.9 1.6h-.5a50.9 50.9 0 0 1-20.3.1 51.8 51.8 0 0 1-11.1-3.6A50.5 50.5 0 0 1 22.9 91a52 52 0 0 1-9.1-9.4 50.3 50.3 0 0 1-3.7-5.7c-.6-1-1.1-2-1.6-3.1s-1-2.1-1.3-3.2a50.6 50.6 0 0 1 8.6-50.8l.8-.8.5-.6.6-.6 1.2-1.1 2.4-2.1A50.5 50.5 0 0 1 62.4 3.2a48.5 48.5 0 0 1 14.7 5.2 47 47 0 0 1 8.3 5.8l2 1.8.7.6.6.7 1.8 2a49.7 49.7 0 0 1 11.3 22.9 50.8 50.8 0 0 1-.1 20.2 51.6 51.6 0 0 1-3.6 11 50.2 50.2 0 0 1-6.6 10.5l-2.1 2.4zm-44.9 13a50.1 50.1 0 0 1-13.7-5 51.8 51.8 0 0 1-6.2-4 55.2 55.2 0 0 1-5.5-4.8 49.9 49.9 0 0 1-11-53.2c.4-1.1.9-2.1 1.3-3.1l.6-1.3a50.2 50.2 0 0 0-3.4 11 51.3 51.3 0 0 0 2.4 28.5c.4 1.1.9 2.2 1.4 3.2s1 2.1 1.6 3.1a50.6 50.6 0 0 0 3.7 5.8 51.5 51.5 0 0 0 9.2 9.5 50.9 50.9 0 0 0 10.7 6.5 51 51 0 0 0 28.7 3.9 50.3 50.3 0 0 1-19.8-.1zm61.9-39.9a50.2 50.2 0 0 1-5.5 14.7 48.4 48.4 0 0 1-5.8 8.3l-1.8 2-.6.7-.7.6-1.9 1.7h.2l2.3-2.4 2.1-2.5A51.3 51.3 0 0 0 98.9 74a51.4 51.4 0 0 0 3.2-31.6 49.6 49.6 0 0 0-2.5-8.2 49.4 49.4 0 0 0-3.1-6.5 48.7 48.7 0 0 0-5.9-8.3l-1.8-2-.6-.7-.7-.6-2-1.8A49.9 49.9 0 0 0 77.3 8a49.3 49.3 0 0 0-6.5-3.2 49.8 49.8 0 0 0-8.2-2.6A52.2 52.2 0 0 0 49.9 1a50.8 50.8 0 0 1 22.7 3.2l3.2 1.3 3.1 1.6a50.1 50.1 0 0 1 5.7 3.7l2.6 2.1 1.2 1.1 1.2 1.1 2.3 2.3 2.1 2.4a50.4 50.4 0 0 1 6.5 10.5 51.6 51.6 0 0 1 3.6 11 51.1 51.1 0 0 1 0 20.3z"></path></g><g id="SvgjsG2328" featurekey="symbolFeature-0" transform="matrix(1.532567139406585,0,0,1.532567139406585,105.42528659193758,55.46743286059341)" fill="#3d84a8"><g xmlns="http://www.w3.org/2000/svg"><path d="M32.3,8.3C17.5,9,10,26.7,19.9,37.8c2.7,3,4.2,7,4.1,11.1c0,0.2,0,0.3,0,0.4c0,0.2,0.1,0.3,0.2,0.4c-0.4,0.6-0.6,1.2-0.6,2   c0,1.7,1.1,3,2.7,3.4c-0.3,0.5-0.4,1.1-0.4,1.7c0,1.7,1.2,3.1,2.8,3.5v0.2c0,2.5,2,4.5,4.5,4.5c2.5,0,4.5-2,4.5-4.5v-0.2   c1.6-0.3,2.8-1.8,2.8-3.5c0-0.6-0.2-1.2-0.4-1.7c1.5-0.4,2.7-1.8,2.7-3.4c0-0.8-0.3-1.6-0.8-2.2c0-0.1,0.1-0.1,0.1-0.2   c0-0.1,0-0.2,0-0.4c-0.1-4.1,1.4-7.9,4.3-11.2C56.5,26,47.9,7.6,32.3,8.3z M35.8,60.5c0,1.4-1.1,2.5-2.5,2.5s-2.5-1.1-2.5-2.5v-0.1   h5V60.5z M37,58.4c-1.5,0-5.1,0-7.6,0c-0.9,0-1.6-0.7-1.6-1.6s0.7-1.6,1.6-1.6H37c0.9,0,1.6,0.7,1.6,1.6S37.9,58.4,37,58.4z    M39.3,53.3c-0.2,0-12.8,0-12,0c-0.9,0-1.6-0.7-1.6-1.6s0.7-1.6,1.6-1.6h12c0.9,0,1.6,0.7,1.6,1.6S40.1,53.3,39.3,53.3z M32.6,48.2   l-2-7.1h5.3l-2,7.1H32.6z M44.9,36.4c-3,3.5-4.6,7.5-4.8,11.8h-0.9H36l4-14.1c0.1-0.5-0.2-1.1-0.7-1.2c-0.5-0.1-1.1,0.2-1.2,0.7   L36.5,39H30l-1.6-5.6c-0.2-0.5-0.7-0.8-1.2-0.7c-0.5,0.2-0.8,0.7-0.7,1.2l4,14.1h-3.3H26c-0.1-4.3-1.8-8.4-4.6-11.6   c-9-10.1-1.9-25.6,10.9-26.2C46.1,9.6,53.9,26,44.9,36.4z"></path><path d="M33.2,6.2c0.6,0,1-0.4,1-1V2c0-0.6-0.4-1-1-1s-1,0.4-1,1v3.2C32.2,5.8,32.7,6.2,33.2,6.2z"></path><path d="M21.4,8.5c0.3,0.5,0.9,0.6,1.4,0.4c0.5-0.3,0.6-0.9,0.4-1.4l-1.6-2.8c-0.3-0.5-0.9-0.6-1.4-0.4c-0.5,0.3-0.6,0.9-0.4,1.4   L21.4,8.5z"></path><path d="M14.7,15.1l-2.8-1.6c-0.5-0.3-1.1-0.1-1.4,0.4c-0.3,0.5-0.1,1.1,0.4,1.4l2.8,1.6c0.5,0.3,1.1,0.1,1.4-0.4   C15.3,16,15.2,15.4,14.7,15.1z"></path><path d="M12.2,26.8c0-0.6-0.4-1-1-1H7.9c-0.6,0-1,0.4-1,1s0.4,1,1,1h3.2C11.7,27.8,12.2,27.4,12.2,26.8z"></path><path d="M13.5,36.9l-2.8,1.6c-0.5,0.3-0.6,0.9-0.4,1.4c0.3,0.5,0.9,0.6,1.4,0.4l2.8-1.6c0.5-0.3,0.6-0.9,0.4-1.4   C14.5,36.8,13.9,36.6,13.5,36.9z"></path><path d="M55.1,39l-2.8-1.6c-0.5-0.3-1.1-0.1-1.4,0.4c-0.3,0.5-0.1,1.1,0.4,1.4l2.8,1.6c0.5,0.3,1.1,0.1,1.4-0.4   C55.7,39.9,55.6,39.2,55.1,39z"></path><path d="M58.1,26.3h-3.2c-0.6,0-1,0.4-1,1s0.4,1,1,1h3.2c0.6,0,1-0.4,1-1S58.6,26.3,58.1,26.3z"></path><path d="M52.5,17.2l2.8-1.6c0.5-0.3,0.6-0.9,0.4-1.4c-0.3-0.5-0.9-0.6-1.4-0.4l-2.8,1.6c-0.5,0.3-0.6,0.9-0.4,1.4   C51.5,17.4,52.1,17.5,52.5,17.2z"></path><path d="M43.6,9.2c0.5,0.3,1.1,0.1,1.4-0.4L46.6,6c0.3-0.5,0.1-1.1-0.4-1.4c-0.5-0.3-1.1-0.1-1.4,0.4l-1.6,2.8   C43,8.3,43.2,8.9,43.6,9.2z"></path><path d="M28.3,20.5c-0.4-0.4-1-0.4-1.4,0l-3.1,3.1c-0.2,0.2-0.3,0.4-0.3,0.7s0.1,0.5,0.3,0.7l3.1,3.1c0.4,0.4,1,0.4,1.4,0   c0.4-0.4,0.4-1,0-1.4L26,24.3l2.4-2.4C28.7,21.5,28.7,20.9,28.3,20.5z"></path><path d="M40.2,20.5c-0.4-0.4-1-0.4-1.4,0s-0.4,1,0,1.4l2.4,2.4l-2.4,2.4c-0.4,0.4-0.4,1,0,1.4c0.4,0.4,1,0.4,1.4,0l3.1-3.1   c0.2-0.2,0.3-0.4,0.3-0.7s-0.1-0.5-0.3-0.7L40.2,20.5z"></path><path d="M37.7,16.5c-0.5-0.3-1.1-0.1-1.4,0.4L29,30.7c-0.3,0.5-0.1,1.1,0.4,1.4c0.5,0.3,1.1,0.1,1.4-0.4l7.4-13.8   C38.4,17.3,38.2,16.7,37.7,16.5z"></path></g></g><g id="SvgjsG2329" featurekey="nameFeature-0" transform="matrix(1.642440403392345,0,0,1.642440403392345,57.65627071502145,153.82070205204803)" fill="#3d84a8"><path d="M14.56 45.32 c-2.08 0.8 -3.56 -0.12 -3.72 -2.36 c-0.04 -0.6 0 -1.2 0 -1.64 c-0.08 -2.52 0.6 -4.72 1.28 -6.92 c0.28 -1.08 0.24 -1.48 -0.68 -0.36 c-1.76 2.16 -3.32 4.48 -5.24 6.52 c-0.72 0.8 -1.44 1.56 -2.44 2 c-1.2 0.48 -2.08 0.12 -2.2 -1.24 c-0.32 -2.72 2.64 -11.4 5.12 -17.16 c0.44 -0.96 0.84 -1.96 1.2 -2.92 c0.24 -0.72 -0.12 -1.04 -0.76 -0.64 c-3.44 2.24 -8.96 6.6 -7 9.32 c0.36 0.32 0.2 0.6 -0.2 0.48 c-0.4 -0.16 -0.68 -0.6 -0.84 -1.16 c-0.8 -2.68 4 -6.8 7.48 -9.04 c0.52 -0.36 1.32 -0.76 1.96 -0.4 c0.56 0.32 0.28 1.28 0 2.04 l-2.04 4.96 c-1.8 4.28 -6.72 17.72 -2.4 14.76 c2.08 -1.44 3.4 -3.56 4.92 -5.44 c1.12 -1.44 2.16 -2.88 3.28 -4.28 c0.24 -0.32 0.56 -0.72 0.96 -0.52 c0.48 0.2 0.36 0.72 0.28 1.08 c-0.28 1.08 -0.6 2.16 -0.92 3.24 c-0.72 2.28 -1.2 4.6 -1.08 7 c0.12 2.12 1.32 2.8 3.2 1.88 c7.68 -3.76 20.4 -27.08 14.36 -30.92 c-0.08 -0.08 -0.2 -0.2 -0.12 -0.36 c0.12 -0.2 0.32 -0.28 0.52 -0.16 c7.08 3.96 -6.76 28.8 -14.92 32.24 z M32.868 39.8 c-2.64 0 -3.72 -1.52 -2.96 -4.04 c0.52 -1.56 1.4 -2.84 2.72 -3.8 c0.96 -0.68 2.04 -0.76 2.96 -0.04 c0.72 0.56 0.48 2.08 -0.44 3 c-1 1 -2.2 1.6 -3.68 1.52 c-0.96 -0.08 -1.32 0.6 -0.84 1.48 c0.52 0.96 1.96 1.48 3.36 1.08 c2.32 -0.68 4.32 -2 6.04 -3.68 c1.04 -1 1.88 -1.64 2.92 -2.68 c0.16 -0.16 0.4 -0.44 0.64 -0.12 c0.12 0.16 0.04 0.36 -0.08 0.52 c-2.72 2.8 -5.2 5.28 -9.08 6.56 c-0.52 0.16 -1.04 0.16 -1.56 0.2 z M31.668000000000006 35.68 c1.04 0.48 3.56 -1.24 3.6 -2.64 c-0.04 -0.6 -0.52 -0.92 -1.32 -0.8 c-0.8 0.08 -2.6 1.88 -2.72 2.68 c-0.08 0.4 0.12 0.64 0.44 0.76 z M46.13600000000001 31.92 c-1.24 0.68 -1.4 1.92 -1.28 3.2 c0.92 -0.84 1.68 -1.88 2.8 -2.48 c1.8 -1 3.28 -0.24 3.48 1.84 c0.2 1.8 0.2 1.84 1.88 1.2 c2.24 -0.84 3.96 -1.76 6.12 -2.8 c0.44 -0.24 1.08 -0.88 1.36 -0.36 c0.32 0.52 -0.56 0.68 -0.96 0.88 c-2.44 1.32 -4.56 2.36 -7.2 3.28 c-0.92 0.32 -1.52 0.8 -2.04 1.68 c-0.8 1.44 -2 2.48 -3.8 2.48 c-0.64 0 -1.4 0.08 -1.6 -0.8 c-0.16 -0.72 0.36 -1.12 0.84 -1.44 c1 -0.68 2.16 -1.04 3.32 -1.36 c1.12 -0.36 1.52 -1.12 1.4 -2.28 c-0.16 -1.96 -1.04 -2.4 -2.72 -1.44 c-1.6 0.92 -2.36 2.44 -3.24 3.92 c-0.2 0.4 -0.24 1.08 -0.92 0.8 c-0.44 -0.2 -0.24 -0.68 -0.16 -1.04 c1.2 -6.8 4 -12.88 8.12 -18.4 c1.04 -1.36 2.12 -2.68 3.44 -3.88 c1 -0.92 2.16 -1.52 3.44 -1.88 c2.4 -0.68 4.24 1.12 3.68 3.56 c-0.8 3.6 -3.16 6.08 -5.84 8.32 c-3.16 2.64 -6.52 5 -10.12 7 z M46.376000000000005 30 c-0.12 0.28 -0.28 0.76 -0.16 0.92 c0.24 0.24 0.6 -0.08 0.84 -0.24 c4.4 -2.64 8.6 -5.52 12 -9.44 c1.32 -1.52 2.28 -3.28 2.48 -5.84 c0 -1 -1.16 -1.92 -2.64 -1.6 c-1.6 0.36 -2.96 1.16 -4.08 2.36 c-3.76 4.04 -6.52 8.72 -8.44 13.84 z M49.29600000000001 38.48 c0.12 -0.12 0.16 -0.4 -0.12 -0.44 c-0.96 -0.08 -1.72 0.52 -2.56 0.8 c-0.16 0.08 -0.32 0.24 -0.48 0.36 c-0.2 0.12 -0.52 0.28 -0.44 0.6 c0.12 0.4 0.52 0.24 0.88 0.32 c1.16 -0.04 2.04 -0.68 2.72 -1.64 z M63.644000000000005 28.64 c-0.44 0.04 -0.72 -0.24 -0.8 -0.68 c-0.16 -1 0.76 -1.16 1.32 -1.44 c0.4 -0.2 0.68 0.2 0.8 0.64 c-0.24 0.64 -0.48 1.36 -1.32 1.48 z M61.764 39.68 c-1.48 0.44 -2.68 -0.56 -2.56 -2.16 c0.44 -1.68 1.24 -3.36 2.04 -5.04 c0.16 -0.32 0.44 -0.6 0.76 -0.36 c0.4 0.28 0.04 0.6 -0.08 0.88 c-0.52 1.2 -1.12 2.4 -1.56 3.64 c-0.24 0.72 -0.56 1.56 0.24 2.24 c0.52 0.4 1.4 0 2.04 -0.24 c2.52 -1.04 4.52 -3.96 7.44 -6.12 c0.2 -0.12 0.36 -0.44 0.6 -0.12 c0.2 0.24 -0.04 0.44 -0.24 0.56 c-3.88 2.8 -4.6 5.56 -8.68 6.72 z M74.83200000000001 28.32 c-0.68 -0.08 -0.88 -0.6 -0.76 -1.16 c0.12 -0.84 0.72 -1.24 1.56 -1.08 c0.88 0.16 1.52 0.8 2.28 1.2 c0.32 0.16 0.72 0.48 1.08 0.24 c0.52 -0.36 0.04 -0.68 -0.12 -1 c-0.04 -0.12 -0.28 -0.36 0.04 -0.44 c0.16 -0.08 0.4 -0.04 0.56 0.04 c0.48 0.32 0.72 0.8 0.6 1.36 c-0.2 0.76 -0.8 0.84 -1.52 0.84 c-0.84 0.04 -1.44 -0.64 -2.2 -1.04 c-0.84 -0.48 -0.88 -0.4 -0.88 0.64 c0 0.56 -0.36 0.44 -0.64 0.4 z M79.232 39.76 c-0.76 -0.8 -0.4 -1.88 -0.16 -2.84 c0.28 -1.08 0.76 -2.12 0.96 -3.2 c0.24 -1.16 -0.36 -1.6 -1.48 -1.16 c-1.76 0.64 -3.28 1.72 -4.6 3.04 c-1.16 1.16 -2.24 2.32 -3.4 3.44 c-0.28 0.28 -0.56 0.88 -1.12 0.56 c-0.36 -0.2 -0.24 -0.72 -0.16 -1.08 c0.36 -2.28 1.52 -4.2 2.44 -6.28 c0.08 -0.2 0.32 -0.32 0.44 -0.2 c0.12 0.2 0.2 0.52 0.12 0.72 c-0.48 1.16 -1.04 2.32 -1.52 3.48 c-0.2 0.48 -0.44 1 -0.56 1.48 c-0.04 0.2 -0.12 0.76 0.36 0.28 c2 -1.88 3.68 -4.04 6.16 -5.36 c1.04 -0.56 2.16 -1.76 3.4 -0.8 c1.32 1 0.6 2.44 0.24 3.68 c-0.24 0.92 -0.6 1.76 -0.76 2.68 c-0.2 1 0.16 1.48 1.32 1 c1.92 -0.84 3.48 -2.2 5.08 -3.44 c1.4 -1.12 2.48 -2.04 3.88 -3.16 c0.2 -0.2 0.56 -0.52 0.8 -0.2 c0.16 0.2 -0.2 0.4 -0.4 0.56 c-2.4 2.08 -4.52 3.92 -7.12 5.76 c-0.4 0.28 -0.8 0.52 -1.2 0.68 c-0.88 0.4 -1.8 1.28 -2.72 0.36 z M107.06 32.44 c0.4 0.32 -0.04 0.6 -0.24 0.76 c-2.16 2.12 -4.04 4.04 -6.6 5.64 c-0.48 0.28 -0.92 0.56 -1.4 0.76 c-0.92 0.36 -1.84 0.4 -2.64 -0.24 c-0.84 -0.68 -0.8 -1.64 -0.6 -2.56 c0.16 -0.68 0.4 -1.36 0.6 -2 c-1.76 0.84 -2.8 2.64 -4.44 3.68 c-0.56 0.36 -1.08 0.76 -1.68 1.04 c-0.72 0.32 -1.4 0.48 -2.04 -0.08 c-0.6 -0.56 -0.64 -1.32 -0.48 -2.04 c0.6 -2.84 4 -5.64 6.96 -5.72 c0.56 0 1.16 0.2 1.68 0.52 c0.24 0.16 0.44 0.56 0.8 0.36 c0.44 -0.24 0.8 -1 1.28 -0.2 c0.36 0.52 -0.16 0.96 -0.36 1.44 c-0.48 1 -1.12 1.96 -1.36 3.08 c-0.16 0.72 -0.4 1.4 0.32 1.96 c0.72 0.52 1.36 0.28 2.04 -0.08 c1.44 -0.68 2.72 -1.64 3.88 -2.76 c1.2 -1.16 2.28 -2 3.48 -3.16 c0.2 -0.24 0.48 -0.64 0.8 -0.4 z M95.34 34.24 c0.32 -0.32 0.68 -0.68 0.48 -1.2 c-0.28 -0.68 -0.92 -0.36 -1.32 -0.44 c-2.44 0 -5.04 2 -5.96 4.52 c-0.2 0.64 -0.56 1.28 0.12 1.8 c0.6 0.52 1.16 0.04 1.6 -0.24 c1.96 -1.16 3.48 -2.84 5.08 -4.44 z M107.08800000000001 40.88 c-0.6 -0.72 -0.04 -1.52 1.04 -2.04 c1.04 -0.52 1.24 -1.32 0.92 -2.04 c-1.04 -2.36 -1.36 -3 -1.12 -3.96 c0.24 -0.84 0.92 -1.4 1.72 -1.44 c0.76 -0.04 1.28 0.32 1.6 0.96 c0.28 0.56 0.2 1.48 -0.52 1.96 c-0.16 0.08 -0.44 0.24 -0.6 0.08 c-0.24 -0.16 -0.12 -0.32 0.08 -0.52 c1.04 -0.8 -0.08 -2.2 -0.96 -1.52 c-0.96 0.72 -0.56 1.88 0.76 4.72 c0.12 0.24 0.4 0.6 0.88 0.36 c0.92 -0.4 2.08 -0.92 3.2 -1.44 c2.04 -0.96 3.88 -2.12 5.76 -3.36 c0.24 -0.16 0.56 -0.6 0.84 -0.16 c0.24 0.36 -0.16 0.52 -0.44 0.72 c-2.64 1.88 -5.4 3.44 -8.44 4.6 c-0.96 0.36 -1.68 1 -1.92 1.92 c-0.28 1 -2.04 2.08 -2.8 1.16 z M108.36800000000001 40.44 c0.92 -0.36 1.28 -1.68 0.48 -1.28 c-1.72 0.84 -1.24 1.6 -0.48 1.28 z"></path></g><g id="SvgjsG2330" featurekey="sloganFeature-0" transform="matrix(0.6998635348335914,0,0,0.6998635348335914,74.58627567298498,237.92304456883187)" fill="#3d84a8"><path d="M3.56 6.859999999999999 l0 5.24 l6.86 0 l0 1.4 l-6.86 0 l0 6.5 l-1.54 0 l0 -14.58 l9.04 0 l0 1.44 l-7.5 0 z M15.286 20 l0 -14.58 l9.12 0 l0 1.42 l-7.58 0 l0 5.04 l6.94 0 l0 1.42 l-6.94 0 l0 5.28 l7.66 0 l0 1.42 l-9.2 0 z M29.092 20 l0 -14.58 l1.54 0 l0 14.58 l-1.54 0 z M40.897999999999996 6.859999999999999 l0 13.14 l-1.52 0 l0 -13.14 l-4.88 0 l0 -1.44 l11.28 0 l0 1.44 l-4.88 0 z M60.38399999999999 20 l-1.6 -3.72 l-7.94 0 l-1.6 3.72 l-1.56 0 l6.28 -14.58 l1.74 0 l6.3 14.58 l-1.62 0 z M58.20399999999999 14.879999999999999 l-3.4 -7.88 l-3.38 7.88 l6.78 0 z M69.57 20.14 c-1.38 0 -2.7 -0.52 -3.56 -1.28 c-0.9 -0.78 -1.48 -1.82 -1.6 -2.84 l1.44 -0.4 c0.16 0.86 0.6 1.58 1.32 2.18 c0.7 0.6 1.5 0.9 2.4 0.9 c0.84 0 1.62 -0.2 2.24 -0.64 c0.62 -0.42 1.02 -1.14 1.02 -2.02 c0 -1.02 -0.54 -1.68 -1.22 -2.08 c-0.48 -0.28 -0.9 -0.4 -1.38 -0.5 l-1.92 -0.38 c-0.4 -0.08 -0.82 -0.22 -1.28 -0.42 c-0.46 -0.22 -0.86 -0.48 -1.2 -0.82 c-0.68 -0.66 -1.02 -1.5 -1.02 -2.52 c0 -0.8 0.22 -1.52 0.66 -2.14 c0.44 -0.64 1 -1.1 1.7 -1.44 c0.7 -0.32 1.44 -0.48 2.26 -0.48 c3.14 0 4.52 1.94 4.82 3.5 l-1.4 0.44 c-0.24 -1.04 -1.18 -2.52 -3.44 -2.52 c-1.56 -0.04 -3.08 1.06 -3.06 2.58 c0 1.12 0.7 2.02 2.12 2.3 l1.84 0.36 c1.24 0.24 2.2 0.66 2.84 1.28 c0.44 0.4 0.76 0.86 0.96 1.34 c0.2 0.5 0.3 0.94 0.3 1.34 c0.02 2.56 -2.14 4.32 -4.84 4.26 z M91.82199999999999 20.16 c-2 0 -3.86 -0.78 -5.16 -2.06 c-0.64 -0.64 -1.16 -1.42 -1.54 -2.34 c-0.38 -0.94 -0.58 -1.94 -0.58 -3 c0 -1.08 0.2 -2.1 0.6 -3.04 s0.92 -1.74 1.58 -2.38 c1.34 -1.3 3.2 -2.08 5.16 -2.08 c1.54 0 2.94 0.46 3.88 1.12 c0.48 0.32 0.9 0.7 1.28 1.12 c0.74 0.86 1.14 1.72 1.36 2.56 l-1.46 0.52 c-0.12 -0.48 -0.32 -1 -0.86 -1.76 c-0.28 -0.38 -0.58 -0.72 -0.94 -1.02 s-0.82 -0.56 -1.4 -0.76 c-0.58 -0.22 -1.2 -0.32 -1.9 -0.32 c-1.52 0 -2.98 0.62 -4 1.64 c-1.04 1.04 -1.7 2.58 -1.7 4.3 c0 1.14 0.24 2.18 0.74 3.1 c0.48 0.92 1.16 1.64 2.06 2.16 c0.86 0.52 1.84 0.78 2.92 0.78 c1.34 0 2.5 -0.46 3.2 -1.02 c0.36 -0.28 0.68 -0.6 0.96 -1 c0.28 -0.38 0.48 -0.72 0.62 -1 c0.12 -0.28 0.24 -0.58 0.34 -0.88 l1.46 0.52 c-0.22 0.78 -0.6 1.58 -1.34 2.48 c-0.36 0.44 -0.8 0.84 -1.26 1.18 c-0.96 0.68 -2.42 1.18 -4.02 1.18 z M116.26799999999999 12.68 c0 1.38 -0.32 2.64 -0.94 3.78 c-0.64 1.14 -1.52 2.04 -2.64 2.7 c-1.14 0.66 -2.38 1 -3.78 1 c-1.02 0 -1.98 -0.2 -2.9 -0.58 c-0.9 -0.38 -1.68 -0.9 -2.32 -1.58 c-0.64 -0.64 -1.14 -1.42 -1.52 -2.34 c-0.36 -0.92 -0.56 -1.88 -0.56 -2.9 c0 -1.38 0.32 -2.64 0.96 -3.78 c0.62 -1.14 1.5 -2.06 2.64 -2.72 c1.12 -0.66 2.38 -0.98 3.76 -0.98 c1.02 0 1.98 0.18 2.9 0.56 c0.9 0.4 1.68 0.92 2.32 1.56 c0.64 0.68 1.16 1.46 1.52 2.36 c0.38 0.92 0.56 1.88 0.56 2.92 z M114.68799999999999 12.76 c0 -1.64 -0.6 -3.16 -1.6 -4.26 s-2.5 -1.8 -4.18 -1.8 c-1.08 0 -2.06 0.28 -2.94 0.8 c-0.88 0.56 -1.56 1.28 -2.04 2.18 c-0.48 0.92 -0.72 1.92 -0.72 3 c0 1.62 0.6 3.16 1.6 4.24 c1 1.1 2.5 1.8 4.16 1.8 c1.08 0 2.06 -0.28 2.94 -0.82 c0.9 -0.52 1.58 -1.26 2.06 -2.16 s0.72 -1.9 0.72 -2.98 z M131.114 5.42 l1.5 0 l0 14.58 l-1.66 0 l-8.7 -12.4 l0 12.4 l-1.52 0 l0 -14.58 l1.78 0 l8.6 12.26 l0 -12.26 z M151.02599999999998 20.16 c-2 0 -3.86 -0.78 -5.16 -2.06 c-0.64 -0.64 -1.16 -1.42 -1.54 -2.34 c-0.38 -0.94 -0.58 -1.94 -0.58 -3 c0 -1.08 0.2 -2.1 0.6 -3.04 s0.92 -1.74 1.58 -2.38 c1.34 -1.3 3.2 -2.08 5.16 -2.08 c1.54 0 2.94 0.46 3.88 1.12 c0.48 0.32 0.9 0.7 1.28 1.12 c0.74 0.86 1.14 1.72 1.36 2.56 l-1.46 0.52 c-0.12 -0.48 -0.32 -1 -0.86 -1.76 c-0.28 -0.38 -0.58 -0.72 -0.94 -1.02 s-0.82 -0.56 -1.4 -0.76 c-0.58 -0.22 -1.2 -0.32 -1.9 -0.32 c-1.52 0 -2.98 0.62 -4 1.64 c-1.04 1.04 -1.7 2.58 -1.7 4.3 c0 1.14 0.24 2.18 0.74 3.1 c0.48 0.92 1.16 1.64 2.06 2.16 c0.86 0.52 1.84 0.78 2.92 0.78 c1.34 0 2.5 -0.46 3.2 -1.02 c0.36 -0.28 0.68 -0.6 0.96 -1 c0.28 -0.38 0.48 -0.72 0.62 -1 c0.12 -0.28 0.24 -0.58 0.34 -0.88 l1.46 0.52 c-0.22 0.78 -0.6 1.58 -1.34 2.48 c-0.36 0.44 -0.8 0.84 -1.26 1.18 c-0.96 0.68 -2.42 1.18 -4.02 1.18 z M172.57199999999997 20 l-1.6 -3.72 l-7.94 0 l-1.6 3.72 l-1.56 0 l6.28 -14.58 l1.74 0 l6.3 14.58 l-1.62 0 z M170.392 14.879999999999999 l-3.4 -7.88 l-3.38 7.88 l6.78 0 z M188.39799999999997 20 l-1.86 0 l-4.32 -5.9 l-2.96 0 l0 5.9 l-1.54 0 l0 -14.58 l5.06 0 c1.72 0 3.1 0.48 3.9 1.28 s1.22 1.8 1.22 2.98 c0 2.46 -1.84 3.88 -4 4.16 z M179.25799999999998 6.859999999999999 l0 5.84 l3.38 0 c1.28 0 2.28 -0.36 2.86 -0.94 c0.56 -0.56 0.84 -1.26 0.84 -2.04 c0 -1.44 -0.88 -2.86 -3.66 -2.86 l-3.42 0 z M192.564 20 l0 -14.58 l1.54 0 l0 14.58 l-1.54 0 z M207.17 3.6999999999999993 c-0.5 0 -0.98 -0.22 -1.26 -0.44 c-0.3 -0.24 -0.76 -0.46 -1.2 -0.46 c-0.4 0 -0.64 0.3 -0.74 0.9 l-1.04 0 c0 -0.64 0.14 -1.14 0.44 -1.56 c0.3 -0.4 0.74 -0.6 1.34 -0.6 c0.8 -0.04 1.74 0.94 2.46 0.9 c0.42 0 0.7 -0.28 0.82 -0.86 l0.92 0 c-0.02 0.62 -0.16 1.14 -0.44 1.54 c-0.28 0.38 -0.7 0.58 -1.3 0.58 z M199.59 20 l0 -14.58 l1.8 0 l8.6 12.26 l0 -12.26 l1.52 0 l0 14.58 l-1.68 0 l-8.7 -12.4 l0 12.4 l-1.54 0 z M230.636 12.68 c0 1.38 -0.32 2.64 -0.94 3.78 c-0.64 1.14 -1.52 2.04 -2.64 2.7 c-1.14 0.66 -2.38 1 -3.78 1 c-1.02 0 -1.98 -0.2 -2.9 -0.58 c-0.9 -0.38 -1.68 -0.9 -2.32 -1.58 c-0.64 -0.64 -1.14 -1.42 -1.52 -2.34 c-0.36 -0.92 -0.56 -1.88 -0.56 -2.9 c0 -1.38 0.32 -2.64 0.96 -3.78 c0.62 -1.14 1.5 -2.06 2.64 -2.72 c1.12 -0.66 2.38 -0.98 3.76 -0.98 c1.02 0 1.98 0.18 2.9 0.56 c0.9 0.4 1.68 0.92 2.32 1.56 c0.64 0.68 1.16 1.46 1.52 2.36 c0.38 0.92 0.56 1.88 0.56 2.92 z M229.056 12.76 c0 -1.64 -0.6 -3.16 -1.6 -4.26 s-2.5 -1.8 -4.18 -1.8 c-1.08 0 -2.06 0.28 -2.94 0.8 c-0.88 0.56 -1.56 1.28 -2.04 2.18 c-0.48 0.92 -0.72 1.92 -0.72 3 c0 1.62 0.6 3.16 1.6 4.24 c1 1.1 2.5 1.8 4.16 1.8 c1.08 0 2.06 -0.28 2.94 -0.82 c0.9 -0.52 1.58 -1.26 2.06 -2.16 s0.72 -1.9 0.72 -2.98 z"></path></g></svg>